<svg xmlns="http://www.w3.org/2000/svg" viewBox="0 0 719.81 255.44"><defs><style>.cls-1{fill:#fff;}</style></defs><g id="Capa_2" data-name="Capa 2"><g id="Capa_1-2" data-name="Capa 1"><polygon class="cls-1" points="137.41 38.33 137.41 16.64 585.32 16.64 585.32 38.33 601.96 38.33 601.96 0 120.77 0 120.77 38.33 137.41 38.33"/><polygon class="cls-1" points="585.28 185.79 585.28 238.8 137.37 238.8 137.37 185.79 120.73 185.79 120.73 255.44 601.92 255.44 601.92 185.79 585.28 185.79"/><path class="cls-1" d="M192.6,194.92l1.83-1.73a8.29,8.29,0,0,0,6.66,3.33c3.26,0,5.43-1.8,5.43-4.45s-2.34-4.14-6-4.14H198v-2.45l2.52,0c3.12,0,5.46-1.46,5.46-4.11,0-2.44-2.24-4.21-5.16-4.21-2.58,0-4.41,1.29-6.08,3.29L193,178.9a9.64,9.64,0,0,1,8-4.11c4.45,0,7.7,2.58,7.7,6.31,0,3-2.1,4.76-4.51,5.47,2.38.54,5,2.28,5,5.64,0,3.9-3.26,6.72-8.11,6.72A10.49,10.49,0,0,1,192.6,194.92Z"/><path class="cls-1" d="M216.54,175.2H226c4.82,0,8.59,3.09,8.59,7.47s-3.77,7.47-8.59,7.47h-6.82v8.38h-2.65Zm9,12.42c3.8,0,6.38-1.83,6.38-5s-2.58-5-6.38-5h-6.35v9.91Z"/><path class="cls-1" d="M256.13,196v2.51H240.75V175.2h2.65V196Z"/><path class="cls-1" d="M277.93,177.71v7.67h12.66v2.51H277.93v10.63h-2.68V175.2H292v2.51Z"/><path class="cls-1" d="M298.88,188.85V175.2h2.65v13.65c0,4.48,3,7.67,7.1,7.67s7.09-3.19,7.09-7.67V175.2h2.65v13.65c0,5.9-4,10.08-9.74,10.08S298.88,194.75,298.88,188.85Z"/><path class="cls-1" d="M341.7,196v2.51H326.32V175.2H329V196Z"/><path class="cls-1" d="M350.93,177.71v7.67H363.6v2.51H350.93v10.63h-2.68V175.2H365v2.51Z"/><path class="cls-1" d="M371.65,175.2h2.64v23.32h-2.64Z"/><path class="cls-1" d="M397.38,196v2.51H382V175.2h2.65V196Z"/><path class="cls-1" d="M418.94,196v2.51H403.56V175.2h2.65V196Z"/><path class="cls-1" d="M426,175.2h2.65l8.65,16.26L446,175.2h2.65v23.32H446V180.9l-8.66,16.26-8.65-16.26v17.62H426Z"/><path class="cls-1" d="M459.9,177.71v7.67h12.66v2.51H459.9V196H474v2.51H457.21V175.2H474v2.51Z"/><path class="cls-1" d="M481.73,175.2h2.65l14.46,19v-19h2.65v23.32h-2.65l-14.46-19v19h-2.65Z"/><path class="cls-1" d="M516.77,177.71h-7.84V175.2h18.33v2.51h-7.84v20.81h-2.65Z"/><path class="cls-1" d="M72.47,68.62,67.93,87.75A49.7,49.7,0,0,0,62,86q-3.26-.74-6.87-1.23c-2.41-.33-4.82-.57-7.23-.74s-4.73-.24-6.93-.24q-6.26,0-9.32,1.35a4.72,4.72,0,0,0-3.07,4.66A4.47,4.47,0,0,0,29.86,93a11,11,0,0,0,3.92,2.39q2.64,1,6.69,2.21T50.28,100a51.31,51.31,0,0,1,11.22,3.55,35.73,35.73,0,0,1,8.09,5.09,17.19,17.19,0,0,1,5,7.11,28,28,0,0,1,1.59,9.88,23,23,0,0,1-4.6,14.53q-4.59,5.94-13.61,9.13T35.56,152.5c-2.94,0-6-.12-9-.37s-6.11-.61-9.14-1.1-6-1.08-8.95-1.78A75,75,0,0,1,0,146.74l4.78-18.89q4.05,1.35,8,2.33t8.1,1.78a70,70,0,0,0,8.28,1.1c2.77.21,5.39.31,7.84.31a38,38,0,0,0,7.79-.61,7.58,7.58,0,0,0,4-2,4.64,4.64,0,0,0,1.28-3.25,4,4,0,0,0-1.71-3.37,19.27,19.27,0,0,0-5-2.45c-2.21-.78-5-1.57-8.28-2.39s-7.17-1.8-11.59-2.94a63.62,63.62,0,0,1-8.82-4A26.29,26.29,0,0,1,8,106.94a20.87,20.87,0,0,1-4.23-7.11A27.27,27.27,0,0,1,2.33,90.7,25.47,25.47,0,0,1,4.48,80.21a21.86,21.86,0,0,1,6.8-8.46,33.54,33.54,0,0,1,12-5.58,68.41,68.41,0,0,1,17.59-2,120.05,120.05,0,0,1,12.33.61A102.58,102.58,0,0,1,64,66.48C67.28,67.17,70.1,67.89,72.47,68.62Z"/><path class="cls-1" d="M83.88,151.27V65.44h26l18,38.87,18.27-38.87h24.77v85.83H148.25v-49.9l-15.2,33H121.4l-14.72-32.49v49.41Z"/><path class="cls-1" d="M177.68,151.27l26.49-86.08h30.17l26.85,86.08H233.72l-3.43-13.36H207.11l-3.43,13.36Zm34-33.84h14.23l-7-33.6Z"/><path class="cls-1" d="M341.27,152.5a36.66,36.66,0,0,1-8.1-.92,35.28,35.28,0,0,1-8.15-3,51.25,51.25,0,0,1-8.16-5.22,67.2,67.2,0,0,1-8.34-7.84,103,103,0,0,1-8.58-11q-.74,0-1.47.06t-1.59.06h-4.17v26.61h-25V65.56q8.1-.61,14.72-.86t12.2-.31q5.58-.06,9.87-.06a89.06,89.06,0,0,1,17.78,1.54,31.22,31.22,0,0,1,12.14,4.9,20.17,20.17,0,0,1,6.87,8.58,31.2,31.2,0,0,1,2.2,12.21,31,31,0,0,1-2.2,12.26,24.06,24.06,0,0,1-6.07,8.58,25.28,25.28,0,0,1-9.26,5.15,56.56,56.56,0,0,0,5,4.72,39.6,39.6,0,0,0,4.78,3.44,20,20,0,0,0,4.54,2.08,14.27,14.27,0,0,0,4.16.68h2.21V152a15.63,15.63,0,0,1-2.33.37Q343,152.5,341.27,152.5Zm-36.79-44.88a24.58,24.58,0,0,0,6.07-.68,8.61,8.61,0,0,0,4.23-2.33,10.6,10.6,0,0,0,2.39-4,18,18,0,0,0,.8-5.76,16.06,16.06,0,0,0-1.17-6.69,7.24,7.24,0,0,0-4-3.68A21.46,21.46,0,0,0,305,83.34H301.9a23.32,23.32,0,0,0-2.39.12c-.78.08-1.71.15-2.82.19s-2.43.14-4,.3v23.3l2.82.19,2.57.12q1.35.06,2.82.06Z"/><path class="cls-1" d="M423.43,87.39H398.78v63.88h-25V87.39H348.87v-22h74.56Z"/><path class="cls-1" d="M434.34,151.27v-86q7.49-.48,12.75-.73t9-.31c2.46,0,4.42-.06,5.89-.06a83.75,83.75,0,0,1,17.23,1.47,24.47,24.47,0,0,1,10.73,4.78,16.91,16.91,0,0,1,5.39,8.77,50.24,50.24,0,0,1,1.48,13.06A47.89,47.89,0,0,1,495,106a20.54,20.54,0,0,1-5.52,9.26,23.45,23.45,0,0,1-9.87,5.27,54.73,54.73,0,0,1-14.78,1.72h-4.35c-1.27,0-2.45,0-3.56-.06l-3.37-.12c-1.14,0-2.43-.1-3.86-.19s-3-.12-4.72-.12v29.55ZM445,73.41v39.73c1.71,0,3.29,0,4.72.06l4,.12,3.86.12c1.31,0,2.78.06,4.41.06a49.6,49.6,0,0,0,11.78-1.16,16.42,16.42,0,0,0,7.35-3.68,14,14,0,0,0,3.87-6.62,37.35,37.35,0,0,0,1.16-10,32.86,32.86,0,0,0-1-8.83,12.09,12.09,0,0,0-3.62-6,17.05,17.05,0,0,0-7.23-3.43,48.83,48.83,0,0,0-11.65-1.17h-3.25c-1.11,0-2.31,0-3.62.12S453,73,451.2,73,447.38,73.24,445,73.41Z"/><path class="cls-1" d="M576.09,152.5a17.31,17.31,0,0,1-6.25-1.23,26.32,26.32,0,0,1-6.5-3.74,47.32,47.32,0,0,1-6.87-6.56,93.09,93.09,0,0,1-7.41-9.81q-3.87-5.76-8.28-13.36c-.82.08-1.82.14-3,.18s-2.27.06-3.25.06q-3.3,0-7.17-.06c-2.57,0-5.05-.1-7.42-.18v33.47H509.26V65.19c3.6-.16,6.91-.33,9.94-.49s5.9-.29,8.64-.37,5.46-.12,8.16-.12a85.52,85.52,0,0,1,16.06,1.29,27.82,27.82,0,0,1,10.79,4.23,16.88,16.88,0,0,1,6.07,7.78,32.47,32.47,0,0,1,1.9,11.84,32.87,32.87,0,0,1-2.21,12.81,19.47,19.47,0,0,1-6.62,8.4,29.46,29.46,0,0,1-10.67,4.66,130.56,130.56,0,0,0,8.1,12.45,81.93,81.93,0,0,0,6.93,8.28,26.11,26.11,0,0,0,5.82,4.66,10.42,10.42,0,0,0,4.9,1.47h1.84l.25,10c-.41.08-.86.17-1.35.25A10.78,10.78,0,0,1,576.09,152.5Zm-39.6-43.41a49.47,49.47,0,0,0,10.54-1,19,19,0,0,0,7.24-3.07,12.55,12.55,0,0,0,4.23-5.64,23.66,23.66,0,0,0,1.41-8.7q0-6.63-2.15-10.49a12.63,12.63,0,0,0-7.36-5.64q-5.21-1.77-14-1.78h-4.47c-1.27,0-2.48,0-3.62.06s-2.39.09-3.74.13-2.88.14-4.6.3v35.44c1.55.08,3,.15,4.42.19l4.17.12c1.38,0,2.71.06,4,.06Z"/><path class="cls-1" d="M588.85,151.27V65.44h54.56v9.44H599.76v27h40.71v9.32H599.76v30.65h45.86v9.44Z"/><path class="cls-1" d="M657.39,151.27v-86q7.49-.48,12.76-.73c3.51-.17,6.5-.27,9-.31s4.41-.06,5.88-.06a83.68,83.68,0,0,1,17.23,1.47,24.41,24.41,0,0,1,10.73,4.78,16.87,16.87,0,0,1,5.4,8.77,50.71,50.71,0,0,1,1.47,13.06A47.54,47.54,0,0,1,718.09,106a20.36,20.36,0,0,1-5.52,9.26,23.45,23.45,0,0,1-9.87,5.27,54.66,54.66,0,0,1-14.77,1.72h-4.36c-1.26,0-2.45,0-3.55-.06l-3.37-.12c-1.15,0-2.44-.1-3.87-.19s-3-.12-4.72-.12v29.55Zm10.67-77.86v39.73c1.72,0,3.29,0,4.72.06l4.05.12,3.86.12c1.31,0,2.78.06,4.42.06a49.51,49.51,0,0,0,11.77-1.16,16.46,16.46,0,0,0,7.36-3.68A14.11,14.11,0,0,0,708.1,102a37.35,37.35,0,0,0,1.16-10,32.86,32.86,0,0,0-1-8.83,12,12,0,0,0-3.62-6,17,17,0,0,0-7.23-3.43,48.83,48.83,0,0,0-11.65-1.17h-3.25c-1.1,0-2.31,0-3.62.12s-2.84.17-4.6.25S670.43,73.24,668.06,73.41Z"/></g></g></svg>